<!DOCTYPE svg PUBLIC "-//W3C//DTD SVG 1.1//EN" "http://www.w3.org/Graphics/SVG/1.1/DTD/svg11.dtd">
<!-- Uploaded to: SVG Repo, www.svgrepo.com, Transformed by: SVG Repo Mixer Tools -->
<svg height="800px" width="800px" version="1.1" id="Layer_1" xmlns="http://www.w3.org/2000/svg" xmlns:xlink="http://www.w3.org/1999/xlink" viewBox="0 0 512 512" xml:space="preserve" fill="#000000" stroke="#000000">
<g id="SVGRepo_bgCarrier" stroke-width="0"/>
<g id="SVGRepo_tracerCarrier" stroke-linecap="round" stroke-linejoin="round"/>
<g id="SVGRepo_iconCarrier"> <path style="fill:#EBD37A;" d="M422.698,166.698c0-3.561-1.572-6.748-4.05-8.93c2.478-2.183,4.05-5.369,4.05-8.93 s-1.572-6.748-4.05-8.93c2.478-2.183,4.05-5.369,4.05-8.93c6.576,0,11.907-5.331,11.907-11.907c0-6.576-5.331-11.907-11.907-11.907 c0-6.576-5.331-11.907-11.907-11.907c0-6.576-5.331-11.907-11.907-11.907c6.576,0,11.907-5.331,11.907-11.907 c0-6.576-5.331-11.907-11.907-11.907c0-6.576-5.331-11.907-11.907-11.907c-4.765,0-8.865,2.805-10.767,6.85 c0.245-4.87-1.468-9.822-5.18-13.532c-5.369-5.37-13.327-6.582-19.886-3.671c0.065-0.511,0.112-1.026,0.112-1.554 c0-6.576-5.331-11.907-11.907-11.907c0-6.576-5.331-11.907-11.907-11.907s-11.907,5.331-11.907,11.907 c-1.029,0-2.023,0.144-2.976,0.391c-4.059-7.331-11.865-12.298-20.838-12.298c-5.366,0-10.301,1.797-14.284,4.791 c-2.171-2.904-5.626-4.791-9.53-4.791C267.907,5.331,262.576,0,256,0c-6.576,0-11.907,5.331-11.907,11.907 c-3.904,0-7.36,1.887-9.53,4.791c-3.983-2.995-8.917-4.791-14.284-4.791c-8.973,0-16.779,4.966-20.838,12.298 c-0.953-0.246-1.947-0.391-2.976-0.391c0-6.576-5.331-11.907-11.907-11.907s-11.907,5.331-11.907,11.907 c-6.576,0-11.907,5.331-11.907,11.907c0,0.527,0.046,1.042,0.112,1.551c-6.56-2.909-14.521-1.697-19.892,3.673 c-3.705,3.705-5.42,8.648-5.183,13.511c-1.908-4.032-6.001-6.829-10.758-6.829c-6.576,0-11.907,5.331-11.907,11.907 c-6.576,0-11.907,5.331-11.907,11.907c0,6.576,5.331,11.907,11.907,11.907c-6.576,0-11.907,5.331-11.907,11.907 c-6.576,0-11.907,5.331-11.907,11.907c-6.576,0-11.907,5.331-11.907,11.907c0,6.576,5.331,11.907,11.907,11.907 c0,2.456,0.744,4.738,2.018,6.633c-4.639,1.626-7.972,6.032-7.972,11.227c0,5.195,3.333,9.601,7.972,11.227 c-1.274,1.896-2.018,4.178-2.018,6.633c-6.576,0-11.907,5.331-11.907,11.907s5.331,11.907,11.907,11.907 c0,6.576,5.331,11.907,11.907,11.907h309.581c6.576,0,11.907-5.331,11.907-11.907c6.576,0,11.907-5.331,11.907-11.907 S429.274,166.698,422.698,166.698z"/> <path style="fill:#E2C35A;" d="M422.698,166.698c0-3.561-1.572-6.748-4.05-8.93c2.478-2.183,4.05-5.369,4.05-8.93 s-1.572-6.748-4.05-8.93c2.478-2.183,4.05-5.369,4.05-8.93c6.576,0,11.907-5.331,11.907-11.907c0-6.576-5.331-11.907-11.907-11.907 c0-6.576-5.331-11.907-11.907-11.907c0-6.576-5.331-11.907-11.907-11.907c6.576,0,11.907-5.331,11.907-11.907 c0-6.576-5.331-11.907-11.907-11.907c0-6.576-5.331-11.907-11.907-11.907c-4.765,0-8.865,2.805-10.767,6.85 c0.245-4.87-1.468-9.822-5.18-13.532c-5.369-5.37-13.327-6.582-19.886-3.671c0.065-0.511,0.112-1.026,0.112-1.554 c0-6.576-5.331-11.907-11.907-11.907c0-6.576-5.331-11.907-11.907-11.907s-11.907,5.331-11.907,11.907 c-1.029,0-2.023,0.144-2.976,0.391c-4.059-7.331-11.865-12.298-20.838-12.298c-5.366,0-10.301,1.797-14.284,4.791 c-2.171-2.904-5.626-4.791-9.53-4.791C267.907,5.331,262.576,0,256,0c-6.576,0-11.907,5.331-11.907,11.907 c6.576,0,11.907,5.331,11.907,11.907c6.576,0,11.907,5.331,11.907,11.907c0,0.527-0.046,1.043-0.113,1.554 c6.558-2.911,14.517-1.699,19.886,3.671c3.711,3.711,5.425,8.662,5.18,13.532c1.904-4.045,6.003-6.85,10.769-6.85 c6.576,0,11.907,5.331,11.907,11.907c6.576,0,11.907,5.331,11.907,11.907c0,6.576-5.331,11.907-11.907,11.907 c6.576,0,11.907,5.331,11.907,11.907c6.576,0,11.907,5.331,11.907,11.907c6.576,0,11.907,5.331,11.907,11.907 c0,6.576-5.331,11.907-11.907,11.907c0,3.561-1.572,6.748-4.05,8.93c2.478,2.183,4.05,5.369,4.05,8.93 c0,2.227-0.614,4.306-1.68,6.086c-5.352,0.757-9.557,5.065-10.148,10.467c-3.171-2.878-7.367-4.646-11.986-4.646 c-4.618,0-8.812,1.767-11.983,4.644c-0.652-5.959-5.699-10.597-11.831-10.597h-47.628c-6.133,0-11.178,4.638-11.831,10.597 c-3.171-2.877-7.364-4.644-11.983-4.644s-8.812,1.767-11.983,4.644c-0.653-5.959-5.699-10.597-11.831-10.597 c-6.576,0-11.907,5.331-11.907,11.907c-6.576,0-11.907,5.331-11.907,11.907c0-6.576-5.331-11.907-11.907-11.907 c0-6.576-5.331-11.907-11.907-11.907c-6.133,0-11.178,4.638-11.831,10.597c-3.171-2.877-7.364-4.644-11.983-4.644 c-4.619,0-8.812,1.767-11.983,4.644c-0.652-5.959-5.699-10.597-11.831-10.597c-6.576,0-11.907,5.331-11.907,11.907 c-6.576,0-11.907,5.331-11.907,11.907s5.331,11.907,11.907,11.907c0,6.576,5.331,11.907,11.907,11.907 c0,6.576,5.331,11.907,11.907,11.907c0,6.576,5.331,11.907,11.907,11.907c6.576,0,11.907-5.331,11.907-11.907 c6.576,0,11.907-5.331,11.907-11.907c0,6.576,5.331,11.907,11.907,11.907c0,6.576,5.331,11.907,11.907,11.907 s11.907-5.331,11.907-11.907c6.576,0,11.907-5.331,11.907-11.907c0,6.576,5.331,11.907,11.907,11.907 c0,6.576,5.331,11.907,11.907,11.907s11.907-5.331,11.907-11.907c6.576,0,11.907-5.331,11.907-11.907 c0,6.576,5.331,11.907,11.907,11.907c0,6.576,5.331,11.907,11.907,11.907c6.576,0,11.907-5.331,11.907-11.907 c6.576,0,11.907-5.331,11.907-11.907c0,6.576,5.331,11.907,11.907,11.907c0,6.576,5.331,11.907,11.907,11.907 s11.907-5.331,11.907-11.907c6.576,0,11.907-5.331,11.907-11.907c0,6.576,5.331,11.907,11.907,11.907 c0,6.576,5.331,11.907,11.907,11.907s11.907-5.331,11.907-11.907c6.576,0,11.907-5.331,11.907-11.907h23.814 c6.576,0,11.907-5.331,11.907-11.907c6.576,0,11.907-5.331,11.907-11.907S429.274,166.698,422.698,166.698z"/> <g> <path style="fill:#F3E29A;" d="M136.93,59.535c0-6.576-5.331-11.907-11.907-11.907c-6.576,0-11.907,5.331-11.907,11.907 c-6.576,0-11.907,5.331-11.907,11.907c0,6.576,5.331,11.907,11.907,11.907c0,6.576,5.331,11.907,11.907,11.907 c6.576,0,11.907-5.331,11.907-11.907c6.576,0,11.907-5.331,11.907-11.907C148.837,64.866,143.506,59.535,136.93,59.535z"/> <path style="fill:#F3E29A;" d="M160.744,107.163c0-6.576-5.331-11.907-11.907-11.907s-11.907,5.331-11.907,11.907 c-6.576,0-11.907,5.331-11.907,11.907c0,6.576,5.331,11.907,11.907,11.907c0,6.576,5.331,11.907,11.907,11.907 c6.576,0,11.907-5.331,11.907-11.907c6.576,0,11.907-5.331,11.907-11.907C172.651,112.494,167.32,107.163,160.744,107.163z"/> <path style="fill:#F3E29A;" d="M208.372,59.535c0-6.576-5.331-11.907-11.907-11.907s-11.907,5.331-11.907,11.907 c-6.576,0-11.907,5.331-11.907,11.907c0,6.576,5.331,11.907,11.907,11.907c0,6.576,5.331,11.907,11.907,11.907 s11.907-5.331,11.907-11.907c6.576,0,11.907-5.331,11.907-11.907C220.279,64.866,214.948,59.535,208.372,59.535z"/> <path style="fill:#F3E29A;" d="M279.814,130.977c0-6.576-5.331-11.907-11.907-11.907c-6.576,0-11.907,5.331-11.907,11.907 c-6.576,0-11.907,5.331-11.907,11.907c0,6.576,5.331,11.907,11.907,11.907c0,6.576,5.331,11.907,11.907,11.907 c6.576,0,11.907-5.331,11.907-11.907c6.576,0,11.907-5.331,11.907-11.907C291.721,136.307,286.39,130.977,279.814,130.977z"/> <path style="fill:#F3E29A;" d="M279.814,35.721c0-6.576-5.331-11.907-11.907-11.907c-6.576,0-11.907,5.331-11.907,11.907 c-6.576,0-11.907,5.331-11.907,11.907S249.424,59.535,256,59.535c0,6.576,5.331,11.907,11.907,11.907 c6.576,0,11.907-5.331,11.907-11.907c6.576,0,11.907-5.331,11.907-11.907S286.39,35.721,279.814,35.721z"/> </g> <path style="fill:#EBD37A;" d="M386.977,107.163c0-6.576-5.331-11.907-11.907-11.907s-11.907,5.331-11.907,11.907 c-6.576,0-11.907,5.331-11.907,11.907c0,6.576,5.331,11.907,11.907,11.907c0,6.576,5.331,11.907,11.907,11.907 s11.907-5.331,11.907-11.907c6.576,0,11.907-5.331,11.907-11.907C398.884,112.494,393.553,107.163,386.977,107.163z"/> <path style="fill:#c40f0f;" d="M381.985,185.639c-3.851,3.878-9.979,3.878-13.83,0c-4.315-4.345-10.294-7.035-16.9-7.035 l-23.814,23.814l-23.814-23.814c-6.606,0-12.584,2.69-16.898,7.035c-3.851,3.878-9.979,3.878-13.83,0 c-4.315-4.345-10.294-7.035-16.9-7.035l-23.608,23.814l-24.02-23.814c-6.606,0-12.584,2.69-16.898,7.035 c-3.851,3.878-9.979,3.878-13.83,0c-4.315-4.345-10.294-7.035-16.9-7.035l-24.112,23.814l-23.516-23.814 c-4.697,0-9.077,1.36-12.767,3.708c-8.152,5.187-12.015,15.071-10.191,24.559l54.964,285.811 C147.279,503.896,157.09,512,168.508,512h174.985l31.268-142.834l24.124-190.562C392.278,178.605,386.299,181.294,381.985,185.639z"/> <g> <path style="fill:#E7E4CD;" d="M320.732,185.639c3.851,3.878,9.979,3.878,13.83,0c4.314-4.345,10.292-7.035,16.898-7.035 L312.168,512h-28.577l20.242-333.395C310.44,178.605,316.418,181.294,320.732,185.639z"/> <path style="fill:#E7E4CD;" d="M411.856,182.312c8.152,5.187,12.015,15.071,10.191,24.559l-54.964,285.811 C364.927,503.896,355.116,512,343.698,512h-4.144l59.535-333.395C403.787,178.605,408.166,179.964,411.856,182.312z"/> <path style="fill:#E7E4CD;" d="M130.221,185.639c3.851,3.878,9.979,3.878,13.83,0c4.314-4.345,10.292-7.035,16.898-7.035 L200.242,512h-27.386l-59.535-333.395C119.928,178.605,125.907,181.294,130.221,185.639z"/> <path style="fill:#E7E4CD;" d="M225.476,185.639c3.851,3.878,9.979,3.878,13.83,0c4.314-4.345,10.292-7.035,16.898-7.035V512 h-27.386l-20.242-333.395C215.184,178.605,221.163,181.294,225.476,185.639z"/> </g> <path style="opacity:0.3;fill:#493023;enable-background:new ;" d="M411.856,182.312c-3.69-2.348-8.069-3.708-12.767-3.708 h-0.206c-6.606,0-12.585,2.69-16.898,7.035c-1.925,1.938-4.42,2.908-6.914,2.908v1.963l-40.633,267.321 c-2.654,17.456-17.662,30.354-35.317,30.354H144.258l0.864,4.497C147.279,503.896,157.09,512,168.508,512h174.985h0.206 c11.418,0,21.229-8.104,23.385-19.317l0.864-4.497l54.099-281.314C423.872,197.383,420.008,187.499,411.856,182.312z"/> <path style="fill:#c40f0f;" d="M170.27,410.791h-11.907c-4.933,0-8.93-3.998-8.93-8.93c0-4.932,3.997-8.93,8.93-8.93h11.907 c4.933,0,8.93,3.998,8.93,8.93C179.2,406.792,175.203,410.791,170.27,410.791z"/> <path style="fill:#8D472E;" d="M353.637,410.791H341.73c-4.933,0-8.93-3.998-8.93-8.93c0-4.932,3.997-8.93,8.93-8.93h11.907 c4.933,0,8.93,3.998,8.93,8.93C362.567,406.792,358.57,410.791,353.637,410.791z"/> <g> <circle style="fill:#513322;" cx="196.465" cy="375.07" r="17.86"/> <circle style="fill:#513322;" cx="315.535" cy="375.07" r="17.86"/> </g> </g>
</svg>